<svg width="123" height="126" viewBox="0 0 123 126" fill="none" xmlns="http://www.w3.org/2000/svg">
<path d="M110.737 5H12.252C10.8591 4.99881 9.49528 5.39939 8.32399 6.15377C7.1527 6.90816 6.22356 7.98437 5.64784 9.25352C5.07211 10.5227 4.87422 11.931 5.07784 13.3098C5.28146 14.6886 5.87797 15.9794 6.79593 17.0278L45.2132 60.9482C46.3687 62.2712 47.0047 63.969 47.003 65.726V101.062C47.003 101.625 47.1339 102.18 47.3854 102.684C47.637 103.187 48.0022 103.625 48.4521 103.962L70.1896 120.275C70.7278 120.679 71.3679 120.925 72.038 120.985C72.7081 121.046 73.3817 120.918 73.9835 120.617C74.5853 120.316 75.0914 119.853 75.4451 119.281C75.7989 118.708 75.9862 118.048 75.9862 117.375V65.726C75.9845 63.969 76.6205 62.2712 77.7759 60.9482L116.193 17.0205C120.294 12.337 116.961 5 110.737 5Z" stroke="#A8A39A" stroke-width="9.41667" stroke-linecap="round"/>
</svg>
