<svg width="189" height="42" viewBox="0 0 189 42" fill="none" xmlns="http://www.w3.org/2000/svg">
<path d="M42.1668 15.452C42.1668 16.5784 41.8777 17.645 41.3693 18.572C41.2996 18.6916 41.2298 18.8212 41.15 18.9408C39.9938 20.735 37.9803 21.9312 35.6876 21.9312H34.023C30.1256 21.9312 26.9558 25.1009 26.9558 28.9984V35.5174C26.9558 36.564 26.7066 37.5608 26.258 38.428C25.2014 40.5412 23.0085 41.9965 20.4767 41.9965C20.3272 41.9965 20.1776 41.9865 20.0281 41.9766V27.573C20.0281 26.7855 20.0979 26.008 20.2474 25.2604C20.4567 24.0842 20.8455 22.9678 21.3638 21.9312C22.5799 19.5189 24.5436 17.5553 26.9558 16.3392C27.6635 15.9803 28.4211 15.6913 29.1986 15.472C30.2751 15.163 31.4214 15.0035 32.5976 15.0035H42.1468C42.1568 15.153 42.1668 15.3025 42.1668 15.452Z" fill="#B08400"/>
<path d="M21.8695 0.0234305V14.3971C21.8695 15.2842 21.7798 16.1614 21.5904 16.9987C21.3711 18.0653 21.0123 19.092 20.5338 20.0389C19.3177 22.4511 17.3541 24.4148 14.9418 25.6309C14.3139 25.9499 13.656 26.219 12.9682 26.4184C11.802 26.7772 10.5759 26.9666 9.30002 26.9666H0.0199343C0.00996643 26.827 0 26.6775 0 26.528C0 25.4614 0.259164 24.4647 0.707718 23.5775C0.807397 23.3782 0.917044 23.1788 1.04663 22.9894C2.19293 21.2151 4.19647 20.0389 6.47912 20.0389H7.6952C7.755 20.0489 7.81481 20.0489 7.87462 20.0489C7.93443 20.0489 7.99423 20.0489 8.05404 20.0389C11.8717 19.9492 14.9418 16.8193 14.9418 12.9717V6.49258C14.9418 5.42602 15.201 4.42923 15.6496 3.54209C16.7161 1.43887 18.9091 0.00349426 21.4309 0.00349426C21.5804 0.00349426 21.73 0.0134626 21.8695 0.0234305Z" fill="#B08400"/>
<path d="M50.7218 37.0409C49.4139 37.0409 48.4931 36.6539 47.9593 35.8799C47.4255 35.0792 47.1586 34.0249 47.1586 32.7171C47.1586 31.7295 47.3454 30.6219 47.7191 29.3941C48.1195 28.1663 48.6266 26.8852 49.2405 25.5507C49.8543 24.1895 50.5083 22.8282 51.2022 21.467C51.8962 20.1058 52.5634 18.798 53.204 17.5435C53.8713 16.2891 54.4318 15.1547 54.8855 14.1405C54.752 13.4732 54.5919 12.7659 54.4051 12.0186C54.2182 11.2713 54.0447 10.564 53.8846 9.8967C55.0857 9.0693 56.3401 8.37535 57.648 7.81484C58.9558 7.25435 60.5305 6.9741 62.3722 6.9741C63.0661 6.9741 63.6533 7.06751 64.1338 7.25434C64.6142 7.44118 64.9878 7.68139 65.2548 7.97499C65.9487 7.68139 66.6293 7.44118 67.2966 7.25434C67.9638 7.06751 68.6711 6.9741 69.4185 6.9741C70.4327 6.9741 71.18 7.26769 71.6605 7.85488C72.1409 8.41538 72.4478 9.14937 72.5813 10.0568C72.7414 10.9376 72.8215 11.8718 72.8215 12.8593C72.8215 14.3807 72.7681 15.9154 72.6614 17.4635C72.5546 19.0115 72.5012 20.653 72.5012 22.3878C72.5012 24.2295 72.5946 26.0178 72.7815 27.7526C72.9683 29.4875 73.342 31.0222 73.9025 32.3567C74.463 33.6913 75.2904 34.6788 76.3847 35.3194C75.4772 35.8799 74.5964 36.3069 73.7423 36.6005C72.9149 36.8941 71.9274 37.0409 70.7797 37.0409C69.4718 37.0409 68.4042 36.6806 67.5768 35.96C66.7494 35.2393 66.0955 34.2651 65.6151 33.0373C65.1613 31.8096 64.8277 30.4484 64.6142 28.9537H56.4469C56.2067 29.7811 56.0198 30.5418 55.8864 31.2357C55.7529 31.903 55.6862 32.5035 55.6862 33.0373C55.6862 33.8914 55.793 34.5987 56.0065 35.1592C55.019 35.7731 54.0981 36.2402 53.244 36.5605C52.3899 36.8808 51.5492 37.0409 50.7218 37.0409ZM58.1284 24.75H64.3339C64.3339 23.2553 64.3473 21.9074 64.374 20.7063C64.4273 19.5053 64.4807 18.3576 64.5341 17.2633C64.6142 16.1423 64.6943 14.9812 64.7743 13.7802H63.4932C62.5857 15.5684 61.6515 17.4234 60.6907 19.3451C59.7298 21.2668 58.8757 23.0685 58.1284 24.75Z" fill="#B08400"/>
<path d="M83.892 37.0009C82.2639 37.0009 81.1029 36.4938 80.4089 35.4795C79.7149 34.4653 79.368 32.9172 79.368 30.8354C79.368 30.2482 79.4347 29.3808 79.5681 28.2331C79.7283 27.0854 79.9285 25.7775 80.1687 24.3096C80.4089 22.8416 80.6758 21.3202 80.9694 19.7455C81.263 18.1441 81.5432 16.596 81.8102 15.1013C82.0771 13.6067 82.3173 12.2722 82.5308 11.0978L80.2888 7.89492C81.7034 7.06751 83.0513 6.37356 84.3324 5.81306C85.6135 5.25256 86.8947 4.97231 88.1758 4.97231C89.2968 4.97231 90.0709 5.19918 90.4979 5.65292C90.9516 6.07996 91.1785 6.80061 91.1785 7.81484C91.1785 8.74901 91.0584 9.92339 90.8182 11.338C90.578 12.7259 90.2844 14.2473 89.9374 15.9021C89.5904 17.5302 89.2301 19.2117 88.8564 20.9466C88.5095 22.6814 88.2159 24.3496 87.9756 25.951C87.7354 27.5525 87.6153 29.0071 87.6153 30.3149C87.6153 31.3559 87.7087 32.29 87.8956 33.1174C88.1091 33.9181 88.4294 34.5587 88.8564 35.0391C86.9881 36.347 85.3333 37.0009 83.892 37.0009Z" fill="#B08400"/>
<path d="M99.2964 37.0009C97.6683 37.0009 96.5072 36.4938 95.8133 35.4795C95.1193 34.4653 94.7723 32.9172 94.7723 30.8354C94.7723 30.2482 94.8391 29.3808 94.9725 28.2331C95.1327 27.0854 95.3328 25.7775 95.5731 24.3096C95.8133 22.8416 96.0802 21.3202 96.3738 19.7455C96.6674 18.1441 96.9476 16.596 97.2145 15.1013C97.4814 13.6067 97.7216 12.2722 97.9352 11.0978L95.6932 7.89492C97.1078 7.06751 98.4556 6.37356 99.7368 5.81306C101.018 5.25256 102.299 4.97231 103.58 4.97231C104.701 4.97231 105.475 5.19918 105.902 5.65292C106.356 6.07996 106.583 6.80061 106.583 7.81484C106.583 8.74901 106.463 9.92339 106.223 11.338C105.982 12.7259 105.689 14.2473 105.342 15.9021C104.995 17.5302 104.634 19.2117 104.261 20.9466C103.914 22.6814 103.62 24.3496 103.38 25.951C103.14 27.5525 103.02 29.0071 103.02 30.3149C103.02 31.3559 103.113 32.29 103.3 33.1174C103.513 33.9181 103.834 34.5587 104.261 35.0391C102.392 36.347 100.738 37.0009 99.2964 37.0009Z" fill="#B08400"/>
<path d="M114.1 37.0009C112.472 37.0009 111.311 36.5738 110.617 35.7197C109.923 34.8657 109.576 33.6379 109.576 32.0365C109.576 31.476 109.656 30.6219 109.816 29.4742C109.977 28.2998 110.177 27.0053 110.417 25.5907C110.684 24.1494 110.964 22.7081 111.258 21.2668C111.551 19.8256 111.832 18.5444 112.098 17.4234L110.017 14.2206C111.404 13.6067 112.686 13.0862 113.86 12.6592C115.061 12.2054 116.129 11.9786 117.063 11.9786C117.757 11.9786 118.264 12.2188 118.584 12.6992C118.904 13.1796 119.065 13.7935 119.065 14.5408C119.065 15.3949 118.918 16.3558 118.624 17.4234C118.331 18.4643 118.037 19.4519 117.743 20.3861L118.144 20.5862C119.078 17.8371 120.132 15.7152 121.307 14.2206C122.508 12.7259 123.842 11.9786 125.31 11.9786C126.271 11.9786 127.045 12.1921 127.632 12.6191C128.219 13.0195 128.647 13.5266 128.913 14.1405C129.207 14.7277 129.354 15.3015 129.354 15.862C129.354 16.7428 129.127 17.5969 128.673 18.4243C128.246 19.225 127.552 19.8923 126.591 20.4261C125.63 20.9332 124.363 21.1868 122.788 21.1868C122.174 21.1868 121.574 21.3202 120.986 21.5871C120.399 21.854 119.865 22.3612 119.385 23.1085C118.904 23.8291 118.517 24.8567 118.224 26.1912C117.957 27.5258 117.824 29.2606 117.824 31.3959C117.824 33.0507 118.104 34.2651 118.664 35.0391C117.009 36.347 115.488 37.0009 114.1 37.0009Z" fill="#B08400"/>
<path d="M138.294 9.37624C137.066 9.37624 136.052 9.10933 135.251 8.57552C134.45 8.04171 134.05 7.32107 134.05 6.4136C134.05 5.53281 134.343 4.81217 134.931 4.25167C135.518 3.66448 136.225 3.22408 137.053 2.93049C137.907 2.63689 138.707 2.4901 139.455 2.4901C140.682 2.4901 141.697 2.757 142.497 3.29081C143.298 3.79793 143.698 4.51857 143.698 5.45274C143.698 6.22676 143.445 6.92071 142.938 7.5346C142.431 8.12179 141.763 8.57552 140.936 8.89581C140.135 9.2161 139.255 9.37624 138.294 9.37624ZM135.892 37.0009C134.183 37.0009 132.969 36.5738 132.248 35.7197C131.528 34.8657 131.167 33.6379 131.167 32.0365C131.167 31.4493 131.247 30.6352 131.408 29.5943C131.568 28.5267 131.781 27.3523 132.048 26.0711C132.315 24.7633 132.595 23.4421 132.889 22.1076C133.182 20.7731 133.463 19.5186 133.73 18.3442L131.488 14.9812C132.902 14.1271 134.25 13.4198 135.531 12.8593C136.812 12.2722 138.093 11.9786 139.375 11.9786C140.496 11.9786 141.27 12.2188 141.697 12.6992C142.15 13.1796 142.377 13.927 142.377 14.9412C142.377 15.3416 142.271 15.9955 142.057 16.903C141.87 17.8104 141.63 18.878 141.336 20.1058C141.043 21.3336 140.749 22.6281 140.456 23.9893C140.162 25.3238 139.908 26.645 139.695 27.9528C139.508 29.234 139.415 30.3816 139.415 31.3959C139.415 32.1966 139.508 32.9172 139.695 33.5578C139.908 34.1717 140.229 34.6655 140.656 35.0391C139.161 36.347 137.573 37.0009 135.892 37.0009Z" fill="#B08400"/>
<path d="M153.175 37.0009C151.467 37.0009 150.252 36.4938 149.532 35.4795C148.811 34.4653 148.451 32.9172 148.451 30.8354C148.451 30.2482 148.517 29.4208 148.651 28.3532C148.784 27.2589 148.958 26.0444 149.171 24.7099C149.411 23.3754 149.638 22.0542 149.852 20.7464C149.291 20.8531 148.744 20.9733 148.21 21.1067C147.703 21.2402 147.223 21.387 146.769 21.5471C146.662 21.1467 146.582 20.7464 146.529 20.346C146.502 19.9457 146.489 19.6521 146.489 19.4652C146.489 18.0773 146.889 17.0764 147.69 16.4626C148.517 15.822 149.505 15.5017 150.653 15.5017C150.653 14.8878 150.572 14.2072 150.412 13.4599C150.252 12.7125 149.972 11.8851 149.572 10.9777C150.693 10.1503 151.814 9.45631 152.935 8.89581C154.056 8.33531 155.297 8.05506 156.658 8.05506C157.832 8.05506 158.646 8.28193 159.1 8.73567C159.554 9.16271 159.781 9.88336 159.781 10.8976C159.781 11.4047 159.727 12.0053 159.621 12.6992C159.514 13.3932 159.38 14.1538 159.22 14.9812C159.807 14.9012 160.368 14.8078 160.902 14.701C161.435 14.5675 161.956 14.4341 162.463 14.3006C162.57 14.5942 162.637 14.9012 162.663 15.2215C162.717 15.515 162.743 15.8086 162.743 16.1022C162.743 17.1699 162.41 18.104 161.742 18.9047C161.102 19.6788 160.101 20.0658 158.74 20.0658H158.139C157.766 21.774 157.432 23.5222 157.138 25.3105C156.845 27.0987 156.698 28.7669 156.698 30.3149C156.698 31.3559 156.791 32.29 156.978 33.1174C157.192 33.9181 157.512 34.5587 157.939 35.0391C156.444 36.347 154.856 37.0009 153.175 37.0009Z" fill="#B08400"/>
<path d="M176.379 37.0009C173.897 37.0009 171.801 36.5605 170.093 35.6797C168.385 34.7989 167.091 33.5712 166.21 31.9964C165.356 30.395 164.929 28.5534 164.929 26.4715C164.929 24.3096 165.316 22.3478 166.09 20.5862C166.89 18.798 167.998 17.2633 169.413 15.9821C170.827 14.701 172.469 13.7134 174.337 13.0195C176.232 12.3255 178.274 11.9786 180.463 11.9786C183.052 11.9786 184.96 12.5524 186.188 13.7001C187.415 14.8478 188.029 16.2891 188.029 18.024C188.029 19.5186 187.536 20.9332 186.548 22.2677C185.587 23.5756 184.026 24.6432 181.864 25.4706C179.702 26.2713 176.819 26.685 173.216 26.7117C173.296 28.4199 173.683 29.7678 174.377 30.7553C175.098 31.7162 175.992 32.1966 177.06 32.1966C177.593 32.1966 178.154 32.0765 178.741 31.8363C179.328 31.5694 179.822 31.1156 180.222 30.4751C180.623 29.8078 180.823 28.9003 180.823 27.7526C182.638 27.7526 184.066 27.9528 185.107 28.3532C186.148 28.7535 186.668 29.4742 186.668 30.5151C186.668 31.476 186.254 32.4635 185.427 33.4777C184.6 34.4653 183.412 35.306 181.864 36C180.342 36.6673 178.514 37.0009 176.379 37.0009ZM173.576 23.5088C175.525 23.3487 177.086 22.9884 178.261 22.4279C179.435 21.8674 180.289 21.2268 180.823 20.5062C181.357 19.7855 181.624 19.1183 181.624 18.5044C181.624 17.9706 181.463 17.5302 181.143 17.1832C180.823 16.8362 180.369 16.6627 179.782 16.6627C178.821 16.6627 177.927 16.9964 177.1 17.6636C176.272 18.3309 175.551 19.1983 174.938 20.266C174.35 21.3069 173.897 22.3878 173.576 23.5088Z" fill="#B08400"/>
</svg>
