<svg width="113" height="113" viewBox="0 0 113 113" fill="none" xmlns="http://www.w3.org/2000/svg">
<path fill-rule="evenodd" clip-rule="evenodd" d="M72.9169 80.9072C65.2629 86.857 55.6452 90.4 45.2 90.4C20.2367 90.4 0 70.1633 0 45.2C0 20.2367 20.2367 0 45.2 0C70.1633 0 90.4 20.2367 90.4 45.2C90.4 55.6452 86.857 65.2629 80.9072 72.9169L111.345 103.355C113.552 105.561 113.552 109.139 111.345 111.345C109.139 113.552 105.561 113.552 103.355 111.345L72.9169 80.9072ZM79.1 45.2C79.1 63.9225 63.9225 79.1 45.2 79.1C26.4775 79.1 11.3 63.9225 11.3 45.2C11.3 26.4775 26.4775 11.3 45.2 11.3C63.9225 11.3 79.1 26.4775 79.1 45.2Z" fill="#A8A39A"/>
</svg>
